<svg xmlns="http://www.w3.org/2000/svg" xmlns:xlink="http://www.w3.org/1999/xlink" width="78" height="77.99" viewBox="0 0 78 77.99">
  <defs>
    <clipPath id="clip-path">
      <rect id="Rectangle_13766" data-name="Rectangle 13766" width="78" height="77.99" fill="#31aa2d"/>
    </clipPath>
  </defs>
  <g id="Group_49495" data-name="Group 49495" transform="translate(0 0)" style="mix-blend-mode: normal;isolation: isolate">
    <g id="Group_49494" data-name="Group 49494" transform="translate(0 0)" clip-path="url(#clip-path)">
      <path id="Path_75297" data-name="Path 75297" d="M39.082,77.99a39.409,39.409,0,0,1-7.4-.7A38.989,38.989,0,0,1,46.32.7,38.989,38.989,0,0,1,60.9,71.245,38.707,38.707,0,0,1,39.082,77.99m-.1-74.141A35.141,35.141,0,1,0,73.514,45.588h0A35.156,35.156,0,0,0,38.987,3.849" transform="translate(0 0)" fill="#31aa2d"/>
      <path id="Path_75298" data-name="Path 75298" d="M46.426,2.688s-.093,8.279-8.627,8.106S29.283,8.62,25.076,13.466s-12.6.226-12.6.226" transform="translate(-0.468 -0.101)" fill="#31aa2d"/>
      <path id="Path_75299" data-name="Path 75299" d="M18.075,70.485A3.394,3.394,0,0,0,18.2,65.9c-2.029-2.3,1.789-12.574,1-16.125s-3.765-3.338-8.065-2.347-5.186-.991-5.186-.991C4.2,44.284,7.91,39.889,10.231,34.409s-3.81-9.751-3.81-9.751S-1.318,34.62,1.933,45.794s10.6,20.363,16.142,24.691" transform="translate(-0.043 -0.925)" fill="#31aa2d"/>
      <path id="Path_75300" data-name="Path 75300" d="M39.793,50.489c-2.039,0-4.077-.026-6.115.014-.71.014-.987-.187-.94-.926.059-.931-.014-1.868.023-2.8a4.073,4.073,0,0,1,3.973-4.018c2.036-.073,4.078-.075,6.113.006a4.064,4.064,0,0,1,3.909,3.948c.049.975-.025,1.955.027,2.929.037.682-.221.871-.875.86-2.038-.034-4.076-.013-6.115-.013" transform="translate(-1.228 -1.602)" fill="#31aa2d"/>
      <path id="Path_75301" data-name="Path 75301" d="M44.386,36.167a4.558,4.558,0,0,1-4.614,4.6,4.627,4.627,0,0,1-4.54-4.58,4.568,4.568,0,0,1,4.647-4.571,4.507,4.507,0,0,1,4.507,4.552" transform="translate(-1.322 -1.186)" fill="#31aa2d"/>
      <path id="Path_75302" data-name="Path 75302" d="M26.545,48.457a4.238,4.238,0,0,1-1.139-.016c-.982-.284-2.611.79-2.908-.64-.677-3.261.377-5.578,2.532-6a21.182,21.182,0,0,1,7.07-.03c.846.118,1.068.451.315,1.178a5.3,5.3,0,0,0-1.573,4.4c.07.893-.231,1.194-1.124,1.133-1.054-.072-2.116-.016-3.174-.016" transform="translate(-0.836 -1.556)" fill="#31aa2d"/>
      <path id="Path_75303" data-name="Path 75303" d="M46.588,42.127a2.218,2.218,0,0,1,1.634-.526c1.74-.038,3.487-.085,5.223.01a3.609,3.609,0,0,1,3.529,3.763c.082,3.086.082,3.086-2.97,3.086-1.445,0-2.888-.013-4.333,0-.536.007-.823-.079-.871-.746-.231-3.214-.255-3.212-2.213-5.591" transform="translate(-1.748 -1.559)" fill="#31aa2d"/>
      <path id="Path_75304" data-name="Path 75304" d="M50.763,39.666a4,4,0,1,1,4.083-3.982,3.988,3.988,0,0,1-4.083,3.982" transform="translate(-1.755 -1.188)" fill="#31aa2d"/>
      <path id="Path_75305" data-name="Path 75305" d="M28.644,39.663a4,4,0,1,1,4.056-4,4.009,4.009,0,0,1-4.056,4" transform="translate(-0.924 -1.188)" fill="#31aa2d"/>
      <path id="Path_75306" data-name="Path 75306" d="M46.088,4.557,41.9,2.213S30.6,1.245,22.936,5.441s-9.846,8.394-9.846,8.394" transform="translate(-0.491 -0.08)" fill="#31aa2d"/>
      <path id="Path_75307" data-name="Path 75307" d="M62.786,10.1s-9.372,4.741-7.387,9.481,1.1-.992,3.088.442.883,6.5,3.968,5.733,5.66-7.514,7.682-6.127S62.786,10.1,62.786,10.1" transform="translate(-2.068 -0.379)" fill="#31aa2d"/>
      <path id="Path_75308" data-name="Path 75308" d="M74.639,25.681a7.931,7.931,0,0,1-6.064,3.2c-3.425,0-8.82-.441-8.931,2.536s-.772,10.8,2.866,12.568,5.182,1.544,5.182,3.969S65.047,58.206,67.142,59.2s7.276-3.418,7.276-3.418,4.3-6.945,4.3-13.451.772-4.41,0-7.056-4.079-9.592-4.079-9.592" transform="translate(-2.233 -0.963)" fill="#31aa2d"/>
    </g>
  </g>
</svg>
