<svg xmlns="http://www.w3.org/2000/svg" width="67.567" height="67.567" viewBox="0 0 67.567 67.567">
  <g id="Group_49439" data-name="Group 49439" transform="translate(0 0.056)" style="mix-blend-mode: normal;isolation: isolate">
    <g id="Group_49440" data-name="Group 49440" transform="translate(0 -0.056)">
      <path id="Path_75236" data-name="Path 75236" d="M0,336.628c.253-.672.347-1.391.645-2.054a7.566,7.566,0,0,1,10.076-3.812.692.692,0,0,0,.944-.173c3.469-3.5,6.963-6.967,10.432-10.463.374-.377.555-.378.876.046a9.872,9.872,0,0,0,2.114,2.07c.431.308.4.478.043.83q-5.266,5.227-10.5,10.483c-.237.237-.426.4-.237.82A7.521,7.521,0,0,1,8.8,345.094a.937.937,0,0,0-.226.112H6.6a1.52,1.52,0,0,0-.294-.118,7.55,7.55,0,0,1-4.93-3.109A9.584,9.584,0,0,1,0,338.608Z" transform="translate(0 -277.639)" fill="#0172bb"/>
      <path id="Path_75237" data-name="Path 75237" d="M8.446,0c.276.217.626.164.938.241a7.556,7.556,0,0,1,5.092,10.437.769.769,0,0,0,.194,1.049c3.438,3.4,6.847,6.839,10.285,10.244.37.367.345.531-.052.827a10.245,10.245,0,0,0-2.128,2.15c-.283.385-.441.386-.777.047-3.425-3.449-6.871-6.877-10.3-10.323a.731.731,0,0,0-.99-.2A7.546,7.546,0,0,1,.118,8.872,1.542,1.542,0,0,0,0,8.578V6.6a1.554,1.554,0,0,0,.119-.292A7.5,7.5,0,0,1,4.55.655,16.982,16.982,0,0,1,6.73,0Z" fill="#0172bb"/>
      <path id="Path_75238" data-name="Path 75238" d="M338.238,0c.281.21.631.148.944.234a7.306,7.306,0,0,1,5.59,5.718,7.115,7.115,0,0,1-2.656,7.529,7.2,7.2,0,0,1-7.924.941.744.744,0,0,0-1,.2c-3.394,3.417-6.809,6.813-10.2,10.23-.338.34-.515.416-.836-.024a9.873,9.873,0,0,0-2.088-2.1c-.422-.314-.45-.486-.063-.87,3.436-3.406,6.846-6.838,10.281-10.246a.737.737,0,0,0,.2-.988A7.552,7.552,0,0,1,336.165.13c.128-.021.268-.006.357-.13Z" transform="translate(-277.533)" fill="#0172bb"/>
      <path id="Path_75239" data-name="Path 75239" d="M380.834,223.949c-.081.248-.159.5-.245.745a4.888,4.888,0,0,1-8.729,1.191.968.968,0,0,0-.929-.516c-3.143.029-6.286,0-9.428.029-.565.005-.663-.191-.588-.683a9.475,9.475,0,0,0,.015-2.955c-.075-.461.048-.6.53-.6,3.165.021,6.33.005,9.495.019a.711.711,0,0,0,.732-.385,4.656,4.656,0,0,1,4.808-2.438,4.721,4.721,0,0,1,4.209,3.72,1.971,1.971,0,0,0,.132.286Z" transform="translate(-313.267 -189.506)" fill="#0172bb"/>
      <path id="Path_75240" data-name="Path 75240" d="M0,222.342c.192-.157.147-.4.218-.6a4.742,4.742,0,0,1,4.192-3.415,4.629,4.629,0,0,1,4.639,2.289.985.985,0,0,0,.971.551c3.078-.027,6.157,0,9.236-.025.493,0,.63.1.571.616a11.2,11.2,0,0,0,.03,3.026c.079.494-.045.591-.512.589-3.188-.017-6.377-.005-9.565-.016a.681.681,0,0,0-.694.338,4.661,4.661,0,0,1-5.008,2.292,4.686,4.686,0,0,1-3.97-3.818A1.38,1.38,0,0,0,0,223.926v-1.584" transform="translate(0 -189.482)" fill="#0172bb"/>
      <path id="Path_75241" data-name="Path 75241" d="M224.571,0c.165.18.408.138.612.207a4.72,4.72,0,0,1,3.438,4.1,4.631,4.631,0,0,1-2.366,4.787.908.908,0,0,0-.51.922c.021,3.056,0,6.113.021,9.169,0,.467-.1.581-.583.525a11.736,11.736,0,0,0-3.157.029c-.4.062-.491-.04-.489-.421.013-3.188,0-6.377.022-9.565a.673.673,0,0,0-.331-.689A4.664,4.664,0,0,1,218.96,4.1a4.7,4.7,0,0,1,3.8-3.991A1.179,1.179,0,0,0,222.987,0Z" transform="translate(-189.995)" fill="#0172bb"/>
      <path id="Path_75242" data-name="Path 75242" d="M181.53,190.428a9.8,9.8,0,1,1,9.779,9.778,9.777,9.777,0,0,1-9.779-9.778" transform="translate(-157.574 -156.788)" fill="#0172bb"/>
      <path id="Path_75243" data-name="Path 75243" d="M344.667,337.275a7.565,7.565,0,0,1-13,5.234,7.47,7.47,0,0,1-1.481-8.3.855.855,0,0,0-.237-1.157c-3.433-3.408-6.844-6.837-10.275-10.246-.347-.345-.442-.534.023-.866a9.32,9.32,0,0,0,2.1-2.08c.339-.463.537-.364.884-.016,3.409,3.431,6.838,6.843,10.247,10.274a.811.811,0,0,0,1.1.228,7.556,7.556,0,0,1,10.638,6.932" transform="translate(-277.229 -277.374)" fill="#0172bb"/>
      <path id="Path_75244" data-name="Path 75244" d="M225.869,365.3c0,1.6.025,3.209-.017,4.812-.011.419.227.5.477.673a4.72,4.72,0,0,1,2.245,4.732,4.651,4.651,0,0,1-3.313,4.051,4.88,4.88,0,0,1-4.047-8.819.875.875,0,0,0,.5-.913c-.031-3.142-.013-6.285-.022-9.428,0-.348.063-.54.473-.477a10.634,10.634,0,0,0,3.218-.009c.439-.066.516.115.512.5-.015,1.626-.006,3.252-.006,4.879Z" transform="translate(-189.946 -312.41)" fill="#0172bb"/>
    </g>
  </g>
</svg>
