<svg xmlns="http://www.w3.org/2000/svg" xmlns:xlink="http://www.w3.org/1999/xlink" width="64" height="64" viewBox="0 0 64 64">
  <defs>
    <clipPath id="clip-path">
      <rect id="Rectangle_13768" data-name="Rectangle 13768" width="64" height="64" transform="translate(0 -0.363)" fill="#e53990"/>
    </clipPath>
  </defs>
  <g id="Group_49500" data-name="Group 49500" transform="translate(-499 -2017)" style="mix-blend-mode: normal;isolation: isolate">
    <g id="Group_49499" data-name="Group 49499" transform="translate(499 2017.363)">
      <g id="Group_49498" data-name="Group 49498" clip-path="url(#clip-path)">
        <path id="Path_75318" data-name="Path 75318" d="M60.285,0h54.74V54.74a3,3,0,0,1-2.94,1.377Q95.745,56.082,79.4,56.1H78.117c0-5.391-.013-10.628.027-15.865a1.9,1.9,0,0,1,.62-1.117q7.943-7.989,15.921-15.942a10.7,10.7,0,0,1,.837-.666c0,.749,0,1.282,0,1.816,0,2.311-.035,4.623.021,6.932a2.01,2.01,0,0,0,2,2.212,1.926,1.926,0,0,0,1.988-2.081q.079-6.931,0-13.863A1.865,1.865,0,0,0,97.494,15.5q-6.931-.085-13.863-.01a1.924,1.924,0,0,0-2.081,1.983,2.014,2.014,0,0,0,2.212,2.007c2.433.06,4.869.019,7.3.027.429,0,.859.038,1.487.068-.454.481-.747.808-1.058,1.118-4.843,4.844-9.732,9.644-14.5,14.559a4.984,4.984,0,0,1-4.065,1.7c-4.615-.114-9.235-.039-13.917-.039-.034-.4-.086-.72-.086-1.041q-.006-16.589-.013-33.177A2.83,2.83,0,0,1,60.285,0" transform="translate(-51.616)" fill="#e53990"/>
        <path id="Path_75319" data-name="Path 75319" d="M0,331.725a2.658,2.658,0,0,1,2.52-1.452c5.444.017,10.888.007,16.332.01.15,0,.3.028.658.063-.389.427-.641.725-.916,1q-4.416,4.42-8.834,8.839c-.346.347-.865.738-.894,1.138a3.179,3.179,0,0,0,.384,2.206,3.179,3.179,0,0,0,2.206.384c.4-.029.791-.548,1.138-.894q4.428-4.408,8.839-8.834c.275-.275.574-.527,1.067-.976v1.708c0,4.99-.021,9.981.015,14.971a2.891,2.891,0,0,1-1.46,2.891H0Z" transform="translate(0 -289.37)" fill="#e53990"/>
      </g>
    </g>
  </g>
</svg>
