<svg xmlns="http://www.w3.org/2000/svg" width="60" height="60" viewBox="0 0 60 60">
  <g id="Group_49545" data-name="Group 49545" transform="translate(-510 -3453)">
    <circle id="Ellipse_112" data-name="Ellipse 112" cx="30" cy="30" r="30" transform="translate(510 3453)" fill="#e53990"/>
    <g id="Group_49486" data-name="Group 49486" transform="translate(523.145 3466.26)">
      <g id="Group_49487" data-name="Group 49487">
        <path id="Path_75271" data-name="Path 75271" d="M32.992,13.266H31.187a14.883,14.883,0,0,0-1.821-4.43L30.62,7.6a.717.717,0,0,0,.009-1.015L26.851,2.748a.717.717,0,0,0-1.015-.008L24.565,3.989a14.921,14.921,0,0,0-4.556-1.9V.718A.718.718,0,0,0,19.291,0H13.9a.718.718,0,0,0-.718.718v1.37A14.921,14.921,0,0,0,8.8,3.882L7.552,2.591a.719.719,0,0,0-1.017-.018L2.66,6.311a.719.719,0,0,0-.018,1.017L3.936,8.669a14.864,14.864,0,0,0-1.928,4.6H.718A.718.718,0,0,0,0,13.985v5.386a.718.718,0,0,0,.718.718h1.29a14.928,14.928,0,0,0,1.768,4.347l-.95.933a.719.719,0,0,0-.009,1.017l3.776,3.84a.72.72,0,0,0,1.017.009l.936-.922a14.911,14.911,0,0,0,4.6,1.947v1.505a.718.718,0,0,0,.719.718h5.386a.718.718,0,0,0,.718-.718V31.278a14.9,14.9,0,0,0,4.177-1.655l.9.936a.718.718,0,0,0,1.015.018l3.878-3.74a.718.718,0,0,0,.018-1.015l-.856-.888a14.9,14.9,0,0,0,2.086-4.846h1.805a.718.718,0,0,0,.718-.718V13.985a.718.718,0,0,0-.718-.719M19.487,22.689v2.238a1.113,1.113,0,0,1-1.114,1.114H15.337a1.114,1.114,0,0,1-1.114-1.114V22.689a7.362,7.362,0,1,1,5.263,0" fill="#fff"/>
      </g>
    </g>
  </g>
</svg>
