<svg xmlns="http://www.w3.org/2000/svg" xmlns:xlink="http://www.w3.org/1999/xlink" width="60" height="60" viewBox="0 0 60 60">
  <defs>
    <clipPath id="clip-path">
      <rect id="Rectangle_13762" data-name="Rectangle 13762" width="39.095" height="21.374" transform="translate(0 0)" fill="#fff"/>
    </clipPath>
  </defs>
  <g id="Group_49489" data-name="Group 49489" transform="translate(-903 -3453)">
    <circle id="Ellipse_113" data-name="Ellipse 113" cx="30" cy="30" r="30" transform="translate(903 3453)" fill="#fdb622"/>
    <g id="Group_49484" data-name="Group 49484" transform="translate(913.453 3472.313)">
      <g id="Group_49483" data-name="Group 49483" transform="translate(0 0.001)" clip-path="url(#clip-path)">
        <path id="Path_75265" data-name="Path 75265" d="M47.384,50.671c-2.358,0-4.717-.03-7.074.017-.822.017-1.142-.216-1.088-1.071.068-1.077-.017-2.162.027-3.241a4.713,4.713,0,0,1,4.6-4.649c2.355-.085,4.718-.087,7.072.007A4.7,4.7,0,0,1,55.44,46.3c.056,1.127-.029,2.262.031,3.389.042.79-.257,1.007-1.013.995-2.357-.039-4.716-.014-7.074-.014" transform="translate(-27.593 -29.315)" fill="#fff"/>
        <path id="Path_75266" data-name="Path 75266" d="M59.2,5.266a5.275,5.275,0,0,1-5.34,5.321,5.351,5.351,0,0,1-5.251-5.3A5.284,5.284,0,0,1,53.982,0,5.216,5.216,0,0,1,59.2,5.266" transform="translate(-34.201 0)" fill="#fff"/>
        <path id="Path_75267" data-name="Path 75267" d="M4.917,45.147A4.9,4.9,0,0,1,3.6,45.129c-1.136-.329-3.022.914-3.365-.74-.782-3.773.437-6.453,2.93-6.949a24.52,24.52,0,0,1,8.181-.034c.979.137,1.236.523.364,1.363a6.136,6.136,0,0,0-1.819,5.087c.081,1.033-.268,1.382-1.3,1.311-1.219-.084-2.448-.02-3.672-.02" transform="translate(0 -26.089)" fill="#fff"/>
        <path id="Path_75268" data-name="Path 75268" d="M91.271,38.012a2.566,2.566,0,0,1,1.891-.608c2.014-.044,4.034-.1,6.043.011a4.177,4.177,0,0,1,4.084,4.354c.095,3.57.095,3.57-3.437,3.57-1.671,0-3.343-.014-5.013.005-.62.007-.953-.092-1.008-.863-.267-3.719-.3-3.717-2.56-6.469" transform="translate(-64.22 -26.281)" fill="#fff"/>
        <path id="Path_75269" data-name="Path 75269" d="M96.63,9.449a4.629,4.629,0,1,1,4.724-4.607A4.613,4.613,0,0,1,96.63,9.449" transform="translate(-64.757 -0.136)" fill="#fff"/>
        <path id="Path_75270" data-name="Path 75270" d="M13.441,9.45a4.626,4.626,0,1,1,4.692-4.627A4.639,4.639,0,0,1,13.441,9.45" transform="translate(-6.198 -0.141)" fill="#fff"/>
      </g>
    </g>
  </g>
</svg>
