<svg xmlns="http://www.w3.org/2000/svg" width="37" height="37" viewBox="0 0 37 37">
  <path id="Subtraction_1" data-name="Subtraction 1" d="M-437.5,369a18.385,18.385,0,0,1-7.2-1.454,18.438,18.438,0,0,1-5.881-3.965,18.438,18.438,0,0,1-3.965-5.881A18.385,18.385,0,0,1-456,350.5a18.383,18.383,0,0,1,1.454-7.2,18.437,18.437,0,0,1,3.965-5.88,18.438,18.438,0,0,1,5.881-3.965A18.385,18.385,0,0,1-437.5,332a18.383,18.383,0,0,1,7.2,1.454,18.438,18.438,0,0,1,5.88,3.965,18.438,18.438,0,0,1,3.965,5.88A18.383,18.383,0,0,1-419,350.5a18.385,18.385,0,0,1-1.454,7.2,18.438,18.438,0,0,1-3.965,5.881,18.438,18.438,0,0,1-5.88,3.965A18.383,18.383,0,0,1-437.5,369Zm-8.5-17h0v5h18v-5h-18Zm0-8h0v5h18v-5h-18Z" transform="translate(456 -332)" fill="#fff"/>
</svg>
