<svg xmlns="http://www.w3.org/2000/svg" xmlns:xlink="http://www.w3.org/1999/xlink" width="57.623" height="31.783" viewBox="0 0 57.623 31.783">
  <defs>
    <clipPath id="clip-path">
      <path id="Path_75249" data-name="Path 75249" d="M30.5,125.029v0Z" transform="translate(-30.503 -117.445)" fill="#fff"/>
    </clipPath>
    <clipPath id="clip-path-2">
      <circle id="Ellipse_93" data-name="Ellipse 93" cx="6.125" cy="6.125" r="6.125" fill="#fff"/>
    </clipPath>
    <clipPath id="clip-path-3">
      <path id="Path_75250" data-name="Path 75250" d="M192.725,0a6.125,6.125,0,1,0,6.125,6.125A6.125,6.125,0,0,0,192.725,0Z" transform="translate(-186.6 0.001)" fill="#fff"/>
    </clipPath>
    <clipPath id="clip-path-4">
      <path id="Path_75251" data-name="Path 75251" d="M137.347,4.4l.626,9.865c3.567,6.963,8.083,8.017,8.083,8.017L146,35.222h14.12V30.073h1.1v5.149h5.445V25.945a7.53,7.53,0,0,0-7.532-7.528h-.006c-2.089,0-3.918,0-4.389-.024a14.222,14.222,0,0,1-9.012-2.645c-2.56-1.966-4.483-6.841-5.434-9.7A2.515,2.515,0,0,0,137.347,4.4" transform="translate(-137.347 -4.332)" fill="#fff"/>
    </clipPath>
    <clipPath id="clip-path-5">
      <path id="Path_75252" data-name="Path 75252" d="M26.372,6.053c-.951,2.854-2.874,7.729-5.434,9.7a14.221,14.221,0,0,1-9.012,2.645c-.471.021-2.3.026-4.389.024H7.531A7.529,7.529,0,0,0,0,25.945v9.277H4.434V30.146h1.4v5.075H20.667l-.052-12.944S27.8,20.6,31.2,7.5c.006-.024.012-.048.018-.072a2.523,2.523,0,0,0-4.848-1.378" transform="translate(0 -4.332)" fill="#fff"/>
    </clipPath>
  </defs>
  <g id="Group_49457" data-name="Group 49457" transform="translate(0 0.001)">
    <g id="Group_49448" data-name="Group 49448" transform="translate(6.285 24.198)">
      <g id="Group_49447" data-name="Group 49447" clip-path="url(#clip-path)">
        <path id="Path_75253" data-name="Path 75253" d="M0,0,15.855,8.805,27.012,23.564,11.157,14.759Z" transform="translate(-17.901 2.911) rotate(-38.282)" fill="#fff"/>
      </g>
    </g>
    <g id="Group_49450" data-name="Group 49450" transform="translate(6.925 -0.001)">
      <g id="Group_49449" data-name="Group 49449" transform="translate(0 0)" clip-path="url(#clip-path-2)">
        <rect id="Rectangle_13745" data-name="Rectangle 13745" width="17.205" height="17.205" transform="translate(-5.957 4.702) rotate(-38.282)" fill="#fff"/>
      </g>
    </g>
    <g id="Group_49452" data-name="Group 49452" transform="translate(38.447 -0.001)">
      <g id="Group_49451" data-name="Group 49451" clip-path="url(#clip-path-3)">
        <rect id="Rectangle_13746" data-name="Rectangle 13746" width="17.206" height="17.206" transform="translate(-5.958 4.702) rotate(-38.282)" fill="#fff"/>
      </g>
    </g>
    <g id="Group_49454" data-name="Group 49454" transform="translate(28.299 0.892)">
      <g id="Group_49453" data-name="Group 49453" clip-path="url(#clip-path-4)">
        <rect id="Rectangle_13747" data-name="Rectangle 13747" width="42.156" height="42.415" transform="translate(-15.022 11.856) rotate(-38.282)" fill="#fff"/>
      </g>
    </g>
    <g id="Group_49456" data-name="Group 49456" transform="translate(0 0.892)">
      <g id="Group_49455" data-name="Group 49455" clip-path="url(#clip-path-5)">
        <rect id="Rectangle_13748" data-name="Rectangle 13748" width="43.891" height="43.785" transform="translate(-15.022 11.856) rotate(-38.282)" fill="#fff"/>
      </g>
    </g>
  </g>
</svg>
