<svg id="Group_49446" data-name="Group 49446" xmlns="http://www.w3.org/2000/svg" xmlns:xlink="http://www.w3.org/1999/xlink" width="29.791" height="41.435" viewBox="0 0 29.791 41.435">
  <defs>
    <clipPath id="clip-path">
      <rect id="Rectangle_13743" data-name="Rectangle 13743" width="29.791" height="41.434" fill="#fff"/>
    </clipPath>
  </defs>
  <g id="Group_49445" data-name="Group 49445" clip-path="url(#clip-path)">
    <path id="Path_75246" data-name="Path 75246" d="M25.773,691.749h-.551c-.092-.456-.177-1-.251-1.582H2.2c-.045.513-.083,1.037-.106,1.582H2.053a2.053,2.053,0,0,0,0,4.107h23.72a2.053,2.053,0,1,0,0-4.107" transform="translate(0 -654.421)" fill="#fff"/>
    <path id="Path_75247" data-name="Path 75247" d="M44.552,17.376a1.043,1.043,0,0,0,1.453.249l3.727-2.639a1.194,1.194,0,0,1,1.5.1,3.99,3.99,0,0,0,6.174-.932c.2,1.5-.54,3.833-5.04,6.763-4.167,2.713-6.788,5.533-8.2,9.354H65.746a22.443,22.443,0,0,1,2.031-7.159c2.515-4.09,5.34-11.527-1.263-18.419C61-1.06,56.1-.373,53.351.8a2.71,2.71,0,0,0-1.469,3.44L48.8,1.389a.53.53,0,0,0-.873.525L48.944,5.78a4.626,4.626,0,0,0-.977,1.066l-4.777,7.481a1.044,1.044,0,0,0,.028,1.163Z" transform="translate(-40.798 0)" fill="#fff"/>
    <path id="Path_75248" data-name="Path 75248" d="M7.227,613.606h24.1a1.369,1.369,0,1,0,0-2.738H7.227a1.369,1.369,0,1,0,0,2.738" transform="translate(-5.555 -579.229)" fill="#fff"/>
  </g>
</svg>
