<svg id="Group_49459" data-name="Group 49459" xmlns="http://www.w3.org/2000/svg" width="51.125" height="44.944" viewBox="0 0 51.125 44.944">
  <g id="Group_49460" data-name="Group 49460">
    <path id="Path_75254" data-name="Path 75254" d="M14.568,43.124h0a5.953,5.953,0,0,1-8.417.152L0,37.342l4.132-4.284Z" fill="#fff"/>
    <path id="Path_75255" data-name="Path 75255" d="M49.967,20.612c-2.039-1.639-4.356,0-4.356,0L38.225,28.24a5.658,5.658,0,0,1-.655,4.044,3.545,3.545,0,0,1-2.812,1.39c-.879.065-2.2.087-3.576.087-2.654,0-5.493-.081-5.671-.086l.026-.893c.065,0,6.623.189,9.16,0a2.7,2.7,0,0,0,2.151-1.023,5.025,5.025,0,0,0,.457-3.593,3.684,3.684,0,0,0-2.695-1.833L22.04,26.3C9.877,22.458,4.782,32.2,4.782,32.2l-.144.407,10.3,9.935a6.753,6.753,0,0,1,4.61-2.774s8.934-.037,13.622,0A10.212,10.212,0,0,0,40.443,37s9.266-10.152,10.262-12.219a3.385,3.385,0,0,0-.738-4.172" fill="#fff"/>
    <path id="Path_75256" data-name="Path 75256" d="M30.369,5.11A5.11,5.11,0,1,1,25.259,0a5.11,5.11,0,0,1,5.11,5.11" fill="#fff"/>
    <path id="Path_75257" data-name="Path 75257" d="M35.066,17.194v-.66A4.633,4.633,0,0,0,30.433,11.9H20.084a4.634,4.634,0,0,0-4.634,4.633v1.93l.015.012v4.586h19.6V17.194Z" fill="#fff"/>
  </g>
</svg>
