<svg xmlns="http://www.w3.org/2000/svg" xmlns:xlink="http://www.w3.org/1999/xlink" width="132" height="132" viewBox="0 0 132 132">
  <defs>
    <clipPath id="clip-path">
      <rect id="Rectangle_20624" data-name="Rectangle 20624" width="132" height="132" transform="translate(139 5679.164)" fill="#e3c5c5"/>
    </clipPath>
  </defs>
  <g id="Mask_Group_50538" data-name="Mask Group 50538" transform="translate(-139 -5679.164)" clip-path="url(#clip-path)">
    <g id="Group_51933" data-name="Group 51933" transform="translate(140.413 5679.996)">
      <path id="Path_86934" data-name="Path 86934" d="M531.663,1932.283l32.362-32.362H531.663Z" transform="translate(-466.94 -1867.558)" fill="#00ae8e"/>
      <path id="Path_86935" data-name="Path 86935" d="M590.612,1905.7l-32.362-32.362V1905.7Z" transform="translate(-461.165 -1873.333)" fill="#7f3f97"/>
      <path id="Path_86936" data-name="Path 86936" d="M478.491,1899.92l32.362,32.363V1899.92Z" transform="translate(-478.491 -1867.558)" fill="#e5d9ea"/>
      <path id="Path_86937" data-name="Path 86937" d="M537.44,1905.7l-32.362-32.362V1905.7Z" transform="translate(-472.715 -1873.333)" fill="#e5d9ea"/>
      <path id="Path_86938" data-name="Path 86938" d="M505.077,1932.283l32.362-32.362H505.077Z" transform="translate(-472.715 -1867.558)" fill="#00ae8e"/>
      <path id="Path_86939" data-name="Path 86939" d="M510.853,1873.333,478.491,1905.7h32.362Z" transform="translate(-478.491 -1873.333)" fill="#7f3f97"/>
      <path id="Path_86940" data-name="Path 86940" d="M558.251,1958.87l32.362-32.362H558.251Z" transform="translate(-461.164 -1861.783)" fill="#7f3f97"/>
      <path id="Path_86941" data-name="Path 86941" d="M537.44,1899.92l-32.362,32.363H537.44Z" transform="translate(-472.715 -1867.558)" fill="#98d5c5"/>
      <path id="Path_86942" data-name="Path 86942" d="M564.027,1873.333,531.664,1905.7h32.362Z" transform="translate(-466.94 -1873.333)" fill="#98d5c5"/>
      <path id="Path_86943" data-name="Path 86943" d="M558.25,1932.283l32.362-32.362H558.25Z" transform="translate(-461.165 -1867.558)" fill="#00ae8e"/>
      <path id="Path_86944" data-name="Path 86944" d="M590.614,1899.92l-32.362,32.363h32.362Z" transform="translate(-461.164 -1867.558)" fill="#98d5c5"/>
      <path id="Path_86945" data-name="Path 86945" d="M531.663,1985.456l32.362-32.362H531.663Z" transform="translate(-466.94 -1856.007)" fill="#7f3f97"/>
      <path id="Path_86946" data-name="Path 86946" d="M564.027,1899.92l-32.362,32.363h32.362Z" transform="translate(-466.94 -1867.558)" fill="#98d5c5"/>
      <path id="Path_86947" data-name="Path 86947" d="M510.853,1932.283l-32.362-32.362v32.362Z" transform="translate(-478.491 -1867.558)" fill="#7f3f97"/>
      <path id="Path_86948" data-name="Path 86948" d="M531.663,1958.87l32.362-32.362H531.663Z" transform="translate(-466.94 -1861.783)" fill="#00ae8e"/>
      <path id="Path_86949" data-name="Path 86949" d="M505.078,1926.507l32.362,32.362v-32.362Z" transform="translate(-472.715 -1861.783)" fill="#e5d9ea"/>
      <path id="Path_86950" data-name="Path 86950" d="M537.44,1958.87l-32.362-32.362v32.362Z" transform="translate(-472.715 -1861.783)" fill="#7f3f97"/>
      <path id="Path_86951" data-name="Path 86951" d="M478.491,1926.507l32.362,32.362v-32.362Z" transform="translate(-478.491 -1861.783)" fill="#e5d9ea"/>
      <path id="Path_86952" data-name="Path 86952" d="M505.077,1953.094l32.362,32.363v-32.363Z" transform="translate(-472.715 -1856.007)" fill="#e5d9ea"/>
      <path id="Path_86953" data-name="Path 86953" d="M564.026,1926.507l-32.362,32.362h32.362Z" transform="translate(-466.94 -1861.783)" fill="#98d5c5"/>
      <path id="Path_86954" data-name="Path 86954" d="M534.441,1873.336v29.587l-2.772,2.772,0-32.359Z" transform="translate(-466.94 -1873.333)" fill="#00ae8e"/>
      <path id="Path_86955" data-name="Path 86955" d="M539.308,1873.336v23.7l-2.944,2.943v-26.643Z" transform="translate(-465.919 -1873.333)" fill="#00ae8e"/>
      <path id="Path_86956" data-name="Path 86956" d="M544.135,1873.336l0,17.827-2.929,2.928v-20.755Z" transform="translate(-464.868 -1873.333)" fill="#00ae8e"/>
      <path id="Path_86957" data-name="Path 86957" d="M549.3,1873.336v11.61l-3.268,3.267v-14.877Z" transform="translate(-463.819 -1873.333)" fill="#00ae8e"/>
      <path id="Path_86958" data-name="Path 86958" d="M553.91,1873.337l-.005,5.894L551.134,1882v-8.665Z" transform="translate(-462.711 -1873.333)" fill="#00ae8e"/>
      <path id="Path_86959" data-name="Path 86959" d="M558.777,1873.336l-2.944,2.945v-2.945Z" transform="translate(-461.69 -1873.333)" fill="#00ae8e"/>
    </g>
  </g>
</svg>
