<svg xmlns="http://www.w3.org/2000/svg" xmlns:xlink="http://www.w3.org/1999/xlink" width="130" height="130" viewBox="0 0 130 130">
  <defs>
    <clipPath id="clip-path">
      <rect id="Rectangle_20615" data-name="Rectangle 20615" width="130" height="130" transform="translate(0.412 -0.479)" fill="#66bc81"/>
    </clipPath>
  </defs>
  <g id="Mask_Group_50531" data-name="Mask Group 50531" transform="translate(-0.412 0.479)" clip-path="url(#clip-path)">
    <g id="Group_12961" data-name="Group 12961" transform="translate(0.519 0.05)">
      <g id="Group_12941" data-name="Group 12941">
        <path id="Path_683" data-name="Path 683" d="M687.651,1873.333l32.5,32.505,0-32.5Z" transform="translate(-622.835 -1873.333)" fill="#98d5c5"/>
        <path id="Path_684" data-name="Path 684" d="M720.154,1905.841l-32.5-32.507-.005,32.5Z" transform="translate(-622.836 -1873.333)" fill="#00ae8e"/>
        <path id="Path_685" data-name="Path 685" d="M693.567,1873.337l-32.5,32.5h32.5Z" transform="translate(-628.649 -1873.333)" fill="#98d5c5"/>
        <path id="Path_686" data-name="Path 686" d="M666.979,1899.924l-32.5,32.5h32.5Z" transform="translate(-634.463 -1867.519)" fill="#7f3f97"/>
        <path id="Path_687" data-name="Path 687" d="M634.477,1932.427l32.5-32.5h-32.5Z" transform="translate(-634.463 -1867.519)" fill="#98d5c5"/>
        <path id="Path_688" data-name="Path 688" d="M693.567,1932.427l-32.5-32.5v32.5Z" transform="translate(-628.649 -1867.519)" fill="#e5d9ea"/>
        <path id="Path_689" data-name="Path 689" d="M693.566,1926.51l-32.5,32.5h32.5Z" transform="translate(-628.649 -1861.705)" fill="#e5d9ea"/>
        <path id="Path_690" data-name="Path 690" d="M661.064,1959.013l32.5-32.5h-32.5Z" transform="translate(-628.649 -1861.705)" fill="#7f3f97"/>
        <path id="Path_691" data-name="Path 691" d="M661.064,1953.1l32.5,32.5v-32.5Z" transform="translate(-628.649 -1855.892)" fill="#7f3f97"/>
        <path id="Path_692" data-name="Path 692" d="M693.566,1985.6l-32.5-32.5v32.5Z" transform="translate(-628.649 -1855.892)" fill="#98d5c5"/>
        <path id="Path_693" data-name="Path 693" d="M687.652,1932.427l32.5-32.5h-32.5Z" transform="translate(-622.835 -1867.519)" fill="#98d5c5"/>
        <path id="Path_695" data-name="Path 695" d="M720.154,1959.013l-32.5-32.5v32.5Z" transform="translate(-622.835 -1861.705)" fill="#7f3f97"/>
        <path id="Path_697" data-name="Path 697" d="M687.65,1985.6l32.5-32.5h-32.5Z" transform="translate(-622.836 -1855.892)" fill="#e5d9ea"/>
        <path id="Path_699" data-name="Path 699" d="M714.239,1899.922l32.5,32.5v-32.5Z" transform="translate(-617.022 -1867.519)" fill="#00ae8e"/>
        <g id="Group_12652" data-name="Group 12652" transform="translate(64.713 32.352)">
          <path id="Path_694" data-name="Path 694" d="M720.154,1899.922l-32.5,32.5h32.5Z" transform="translate(-687.65 -1899.922)" fill="#7f3f97"/>
          <path id="Path_696" data-name="Path 696" d="M687.65,1926.51l32.5,32.5v-32.5Z" transform="translate(-687.65 -1894.006)" fill="#e5d9ea"/>
          <path id="Path_698" data-name="Path 698" d="M746.741,1932.425l-32.5-32.5v32.5Z" transform="translate(-681.734 -1899.922)" fill="#e5d9ea"/>
          <path id="Path_700" data-name="Path 700" d="M714.238,1959.013l32.5-32.5h-32.5Z" transform="translate(-681.735 -1894.006)" fill="#7f3f97"/>
        </g>
        <path id="Path_701" data-name="Path 701" d="M746.741,1926.509l-32.5,32.5h32.5Z" transform="translate(-617.022 -1861.706)" fill="#98d5c5"/>
        <path id="Path_702" data-name="Path 702" d="M666.968,1959l-32.5-32.5V1959Z" transform="translate(-634.465 -1861.709)" fill="#00ae8e"/>
        <path id="Path_703" data-name="Path 703" d="M634.477,1926.51l32.5,32.5v-32.5Z" transform="translate(-634.463 -1861.705)" fill="#e5d9ea"/>
        <path id="Path_704" data-name="Path 704" d="M685.37,1899.924v29.715l2.784,2.784,0-32.5Z" transform="translate(-623.289 -1867.519)" fill="#00ae8e"/>
        <path id="Path_705" data-name="Path 705" d="M680.533,1899.924v23.8l2.957,2.957v-26.758Z" transform="translate(-624.351 -1867.514)" fill="#00ae8e"/>
        <path id="Path_706" data-name="Path 706" d="M675.7,1899.924l0,17.9,2.941,2.941v-20.845Z" transform="translate(-625.411 -1867.508)" fill="#00ae8e"/>
        <path id="Path_707" data-name="Path 707" d="M670.6,1899.924v11.66l3.282,3.281v-14.941Z" transform="translate(-626.532 -1867.503)" fill="#00ae8e"/>
        <path id="Path_708" data-name="Path 708" d="M665.9,1899.924l.005,5.918,2.784,2.785v-8.7Z" transform="translate(-627.563 -1867.499)" fill="#00ae8e"/>
        <path id="Path_709" data-name="Path 709" d="M661.064,1899.924l2.957,2.957v-2.957Z" transform="translate(-628.626 -1867.495)" fill="#00ae8e"/>
        <path id="Path_710" data-name="Path 710" d="M711.957,1985.6v-29.715l2.784-2.784,0,32.5Z" transform="translate(-617.451 -1855.892)" fill="#00ae8e"/>
        <path id="Path_711" data-name="Path 711" d="M707.12,1984.552v-23.8l2.957-2.956v26.758Z" transform="translate(-618.513 -1854.847)" fill="#00ae8e"/>
        <path id="Path_712" data-name="Path 712" d="M702.292,1983.475l0-17.9,2.941-2.941v20.845Z" transform="translate(-619.574 -1853.771)" fill="#00ae8e"/>
        <path id="Path_713" data-name="Path 713" d="M697.188,1982.4v-11.66l3.282-3.281V1982.4Z" transform="translate(-620.695 -1852.697)" fill="#00ae8e"/>
        <path id="Path_714" data-name="Path 714" d="M692.488,1981.266l.005-5.918,2.784-2.785v8.7Z" transform="translate(-621.726 -1851.561)" fill="#00ae8e"/>
        <path id="Path_716" data-name="Path 716" d="M661.064,1905.839l32.5-32.5h-32.5Z" transform="translate(-628.649 -1873.333)" fill="#00ae8e"/>
      </g>
    </g>
  </g>
</svg>
